<?xml version="1.0" encoding="UTF-8"?>
<svg xmlns="http://www.w3.org/2000/svg" version="1.2" baseProfile="tiny-ps"
     viewBox="0 0 100 100">
  <title>Bit Rage Labour</title>

  <!-- Background -->
  <rect x="0" y="0" width="100" height="100" fill="#F0F0F0"/>

  <!-- Red elements -->
  <g fill="#C01020">
    <rect x="49.3" y="9.86" width="2.82" height="1.41"/>
    <rect x="36.62" y="11.27" width="2.82" height="1.41"/>
    <rect x="49.3" y="11.27" width="4.23" height="1.41"/>
    <rect x="57.75" y="11.27" width="7.04" height="1.41"/>
    <rect x="32.39" y="12.68" width="9.86" height="1.41"/>
    <rect x="50.7" y="12.68" width="4.23" height="1.41"/>
    <rect x="59.15" y="12.68" width="8.45" height="1.41"/>
    <rect x="29.58" y="14.08" width="15.49" height="1.41"/>
    <rect x="53.52" y="14.08" width="2.82" height="1.41"/>
    <rect x="59.15" y="14.08" width="8.45" height="1.41"/>
    <rect x="28.17" y="15.49" width="19.72" height="1.41"/>
    <rect x="59.15" y="15.49" width="9.86" height="1.41"/>
    <rect x="73.24" y="15.49" width="1.41" height="1.41"/>
    <rect x="25.35" y="16.9" width="23.94" height="1.41"/>
    <rect x="59.15" y="16.9" width="9.86" height="1.41"/>
    <rect x="71.83" y="16.9" width="2.82" height="1.41"/>
    <rect x="23.94" y="18.31" width="26.76" height="1.41"/>
    <rect x="53.52" y="18.31" width="1.41" height="1.41"/>
    <rect x="60.56" y="18.31" width="9.86" height="1.41"/>
    <rect x="71.83" y="18.31" width="2.82" height="1.41"/>
    <rect x="21.13" y="19.72" width="30.99" height="1.41"/>
    <rect x="54.93" y="19.72" width="1.41" height="1.41"/>
    <rect x="61.97" y="19.72" width="8.45" height="1.41"/>
    <rect x="71.83" y="19.72" width="2.82" height="1.41"/>
    <rect x="77.46" y="19.72" width="2.82" height="1.41"/>
    <rect x="19.72" y="21.13" width="32.39" height="1.41"/>
    <rect x="54.93" y="21.13" width="2.82" height="1.41"/>
    <rect x="63.38" y="21.13" width="18.31" height="1.41"/>
    <rect x="18.31" y="22.54" width="26.76" height="1.41"/>
    <rect x="56.34" y="22.54" width="2.82" height="1.41"/>
    <rect x="64.79" y="22.54" width="18.31" height="1.41"/>
    <rect x="16.9" y="23.94" width="23.94" height="1.41"/>
    <rect x="56.34" y="23.94" width="5.63" height="1.41"/>
    <rect x="66.2" y="23.94" width="18.31" height="1.41"/>
    <rect x="15.49" y="25.35" width="22.54" height="1.41"/>
    <rect x="49.3" y="25.35" width="5.63" height="1.41"/>
    <rect x="56.34" y="25.35" width="5.63" height="1.41"/>
    <rect x="69.01" y="25.35" width="16.9" height="1.41"/>
    <rect x="14.08" y="26.76" width="21.13" height="1.41"/>
    <rect x="43.66" y="26.76" width="18.31" height="1.41"/>
    <rect x="71.83" y="26.76" width="15.49" height="1.41"/>
    <rect x="14.08" y="28.17" width="18.31" height="1.41"/>
    <rect x="39.44" y="28.17" width="23.94" height="1.41"/>
    <rect x="74.65" y="28.17" width="14.08" height="1.41"/>
    <rect x="12.68" y="29.58" width="18.31" height="1.41"/>
    <rect x="36.62" y="29.58" width="30.99" height="1.41"/>
    <rect x="76.06" y="29.58" width="12.68" height="1.41"/>
    <rect x="11.27" y="30.99" width="18.31" height="1.41"/>
    <rect x="35.21" y="30.99" width="35.21" height="1.41"/>
    <rect x="77.46" y="30.99" width="12.68" height="1.41"/>
    <rect x="11.27" y="32.39" width="16.9" height="1.41"/>
    <rect x="32.39" y="32.39" width="40.85" height="1.41"/>
    <rect x="83.1" y="32.39" width="8.45" height="1.41"/>
    <rect x="9.86" y="33.8" width="16.9" height="1.41"/>
    <rect x="30.99" y="33.8" width="12.68" height="1.41"/>
    <rect x="47.89" y="33.8" width="28.17" height="1.41"/>
    <rect x="84.51" y="33.8" width="7.04" height="1.41"/>
    <rect x="9.86" y="35.21" width="15.49" height="1.41"/>
    <rect x="29.58" y="35.21" width="16.9" height="1.41"/>
    <rect x="49.3" y="35.21" width="28.17" height="1.41"/>
    <rect x="84.51" y="35.21" width="8.45" height="1.41"/>
    <rect x="8.45" y="36.62" width="15.49" height="1.41"/>
    <rect x="28.17" y="36.62" width="18.31" height="1.41"/>
    <rect x="50.7" y="36.62" width="28.17" height="1.41"/>
    <rect x="83.1" y="36.62" width="9.86" height="1.41"/>
    <rect x="8.45" y="38.03" width="14.08" height="1.41"/>
    <rect x="28.17" y="38.03" width="16.9" height="1.41"/>
    <rect x="53.52" y="38.03" width="23.94" height="1.41"/>
    <rect x="83.1" y="38.03" width="11.27" height="1.41"/>
    <rect x="7.04" y="39.44" width="15.49" height="1.41"/>
    <rect x="26.76" y="39.44" width="16.9" height="1.41"/>
    <rect x="54.93" y="39.44" width="22.54" height="1.41"/>
    <rect x="84.51" y="39.44" width="9.86" height="1.41"/>
    <rect x="7.04" y="40.85" width="14.08" height="1.41"/>
    <rect x="25.35" y="40.85" width="18.31" height="1.41"/>
    <rect x="57.75" y="40.85" width="18.31" height="1.41"/>
    <rect x="84.51" y="40.85" width="9.86" height="1.41"/>
    <rect x="7.04" y="42.25" width="14.08" height="1.41"/>
    <rect x="23.94" y="42.25" width="19.72" height="1.41"/>
    <rect x="59.15" y="42.25" width="16.9" height="1.41"/>
    <rect x="85.92" y="42.25" width="9.86" height="1.41"/>
    <rect x="5.63" y="43.66" width="14.08" height="1.41"/>
    <rect x="23.94" y="43.66" width="19.72" height="1.41"/>
    <rect x="60.56" y="43.66" width="14.08" height="1.41"/>
    <rect x="85.92" y="43.66" width="9.86" height="1.41"/>
    <rect x="5.63" y="45.07" width="14.08" height="1.41"/>
    <rect x="22.54" y="45.07" width="21.13" height="1.41"/>
    <rect x="63.38" y="45.07" width="1.41" height="1.41"/>
    <rect x="66.2" y="45.07" width="7.04" height="1.41"/>
    <rect x="87.32" y="45.07" width="8.45" height="1.41"/>
    <rect x="5.63" y="46.48" width="12.68" height="1.41"/>
    <rect x="22.54" y="46.48" width="21.13" height="1.41"/>
    <rect x="66.2" y="46.48" width="5.63" height="1.41"/>
    <rect x="87.32" y="46.48" width="9.86" height="1.41"/>
    <rect x="5.63" y="47.89" width="12.68" height="1.41"/>
    <rect x="22.54" y="47.89" width="21.13" height="1.41"/>
    <rect x="64.79" y="47.89" width="8.45" height="1.41"/>
    <rect x="87.32" y="47.89" width="9.86" height="1.41"/>
    <rect x="4.23" y="49.3" width="14.08" height="1.41"/>
    <rect x="21.13" y="49.3" width="23.94" height="1.41"/>
    <rect x="63.38" y="49.3" width="11.27" height="1.41"/>
    <rect x="81.69" y="49.3" width="1.41" height="1.41"/>
    <rect x="88.73" y="49.3" width="8.45" height="1.41"/>
    <rect x="4.23" y="50.7" width="14.08" height="1.41"/>
    <rect x="21.13" y="50.7" width="25.35" height="1.41"/>
    <rect x="60.56" y="50.7" width="15.49" height="1.41"/>
    <rect x="80.28" y="50.7" width="4.23" height="1.41"/>
    <rect x="88.73" y="50.7" width="8.45" height="1.41"/>
    <rect x="4.23" y="52.11" width="12.68" height="1.41"/>
    <rect x="21.13" y="52.11" width="28.17" height="1.41"/>
    <rect x="57.75" y="52.11" width="26.76" height="1.41"/>
    <rect x="88.73" y="52.11" width="8.45" height="1.41"/>
    <rect x="4.23" y="53.52" width="12.68" height="1.41"/>
    <rect x="21.13" y="53.52" width="63.38" height="1.41"/>
    <rect x="88.73" y="53.52" width="8.45" height="1.41"/>
    <rect x="4.23" y="54.93" width="9.86" height="1.41"/>
    <rect x="21.13" y="54.93" width="38.03" height="1.41"/>
    <rect x="71.83" y="54.93" width="12.68" height="1.41"/>
    <rect x="88.73" y="54.93" width="8.45" height="1.41"/>
    <rect x="4.23" y="56.34" width="7.04" height="1.41"/>
    <rect x="18.31" y="56.34" width="35.21" height="1.41"/>
    <rect x="78.87" y="56.34" width="5.63" height="1.41"/>
    <rect x="88.73" y="56.34" width="8.45" height="1.41"/>
    <rect x="4.23" y="57.75" width="4.23" height="1.41"/>
    <rect x="16.9" y="57.75" width="32.39" height="1.41"/>
    <rect x="88.73" y="57.75" width="8.45" height="1.41"/>
    <rect x="12.68" y="59.15" width="35.21" height="1.41"/>
    <rect x="88.73" y="59.15" width="8.45" height="1.41"/>
    <rect x="9.86" y="60.56" width="35.21" height="1.41"/>
    <rect x="88.73" y="60.56" width="8.45" height="1.41"/>
    <rect x="12.68" y="61.97" width="30.99" height="1.41"/>
    <rect x="80.28" y="61.97" width="16.9" height="1.41"/>
    <rect x="5.63" y="63.38" width="1.41" height="1.41"/>
    <rect x="16.9" y="63.38" width="25.35" height="1.41"/>
    <rect x="80.28" y="63.38" width="16.9" height="1.41"/>
    <rect x="5.63" y="64.79" width="5.63" height="1.41"/>
    <rect x="21.13" y="64.79" width="19.72" height="1.41"/>
    <rect x="77.46" y="64.79" width="19.72" height="1.41"/>
    <rect x="5.63" y="66.2" width="9.86" height="1.41"/>
    <rect x="21.13" y="66.2" width="18.31" height="1.41"/>
    <rect x="74.65" y="66.2" width="21.13" height="1.41"/>
    <rect x="5.63" y="67.61" width="12.68" height="1.41"/>
    <rect x="21.13" y="67.61" width="18.31" height="1.41"/>
    <rect x="74.65" y="67.61" width="21.13" height="1.41"/>
    <rect x="5.63" y="69.01" width="12.68" height="1.41"/>
    <rect x="22.54" y="69.01" width="15.49" height="1.41"/>
    <rect x="74.65" y="69.01" width="21.13" height="1.41"/>
    <rect x="7.04" y="70.42" width="11.27" height="1.41"/>
    <rect x="22.54" y="70.42" width="15.49" height="1.41"/>
    <rect x="74.65" y="70.42" width="21.13" height="1.41"/>
    <rect x="7.04" y="71.83" width="12.68" height="1.41"/>
    <rect x="22.54" y="71.83" width="15.49" height="1.41"/>
    <rect x="74.65" y="71.83" width="19.72" height="1.41"/>
    <rect x="7.04" y="73.24" width="12.68" height="1.41"/>
    <rect x="23.94" y="73.24" width="12.68" height="1.41"/>
    <rect x="76.06" y="73.24" width="18.31" height="1.41"/>
    <rect x="8.45" y="74.65" width="12.68" height="1.41"/>
    <rect x="23.94" y="74.65" width="12.68" height="1.41"/>
    <rect x="77.46" y="74.65" width="15.49" height="1.41"/>
    <rect x="8.45" y="76.06" width="12.68" height="1.41"/>
    <rect x="25.35" y="76.06" width="11.27" height="1.41"/>
    <rect x="77.46" y="76.06" width="15.49" height="1.41"/>
    <rect x="9.86" y="77.46" width="12.68" height="1.41"/>
    <rect x="26.76" y="77.46" width="9.86" height="1.41"/>
    <rect x="78.87" y="77.46" width="12.68" height="1.41"/>
    <rect x="9.86" y="78.87" width="12.68" height="1.41"/>
    <rect x="26.76" y="78.87" width="11.27" height="1.41"/>
    <rect x="80.28" y="78.87" width="11.27" height="1.41"/>
    <rect x="11.27" y="80.28" width="12.68" height="1.41"/>
    <rect x="28.17" y="80.28" width="9.86" height="1.41"/>
    <rect x="67.61" y="80.28" width="5.63" height="1.41"/>
    <rect x="81.69" y="80.28" width="8.45" height="1.41"/>
    <rect x="12.68" y="81.69" width="12.68" height="1.41"/>
    <rect x="29.58" y="81.69" width="8.45" height="1.41"/>
    <rect x="59.15" y="81.69" width="18.31" height="1.41"/>
    <rect x="81.69" y="81.69" width="8.45" height="1.41"/>
    <rect x="12.68" y="83.1" width="12.68" height="1.41"/>
    <rect x="30.99" y="83.1" width="8.45" height="1.41"/>
    <rect x="53.52" y="83.1" width="22.54" height="1.41"/>
    <rect x="80.28" y="83.1" width="8.45" height="1.41"/>
    <rect x="14.08" y="84.51" width="12.68" height="1.41"/>
    <rect x="32.39" y="84.51" width="11.27" height="1.41"/>
    <rect x="47.89" y="84.51" width="26.76" height="1.41"/>
    <rect x="80.28" y="84.51" width="7.04" height="1.41"/>
    <rect x="15.49" y="85.92" width="12.68" height="1.41"/>
    <rect x="33.8" y="85.92" width="39.44" height="1.41"/>
    <rect x="78.87" y="85.92" width="7.04" height="1.41"/>
    <rect x="16.9" y="87.32" width="11.27" height="1.41"/>
    <rect x="30.99" y="87.32" width="2.82" height="1.41"/>
    <rect x="36.62" y="87.32" width="35.21" height="1.41"/>
    <rect x="77.46" y="87.32" width="7.04" height="1.41"/>
    <rect x="18.31" y="88.73" width="8.45" height="1.41"/>
    <rect x="30.99" y="88.73" width="5.63" height="1.41"/>
    <rect x="39.44" y="88.73" width="29.58" height="1.41"/>
    <rect x="76.06" y="88.73" width="7.04" height="1.41"/>
    <rect x="19.72" y="90.14" width="5.63" height="1.41"/>
    <rect x="29.58" y="90.14" width="9.86" height="1.41"/>
    <rect x="42.25" y="90.14" width="22.54" height="1.41"/>
    <rect x="73.24" y="90.14" width="8.45" height="1.41"/>
    <rect x="21.13" y="91.55" width="2.82" height="1.41"/>
    <rect x="28.17" y="91.55" width="11.27" height="1.41"/>
    <rect x="47.89" y="91.55" width="12.68" height="1.41"/>
    <rect x="70.42" y="91.55" width="9.86" height="1.41"/>
    <rect x="28.17" y="92.96" width="8.45" height="1.41"/>
    <rect x="67.61" y="92.96" width="11.27" height="1.41"/>
    <rect x="26.76" y="94.37" width="5.63" height="1.41"/>
    <rect x="40.85" y="94.37" width="4.23" height="1.41"/>
    <rect x="63.38" y="94.37" width="14.08" height="1.41"/>
    <rect x="25.35" y="95.77" width="2.82" height="1.41"/>
    <rect x="38.03" y="95.77" width="36.62" height="1.41"/>
    <rect x="33.8" y="97.18" width="38.03" height="1.41"/>
    <rect x="33.8" y="98.59" width="35.21" height="1.41"/>
  </g>

  <!-- Black elements -->
  <g fill="#000000">
    <rect x="46.48" y="1.41" width="4.23" height="1.41"/>
    <rect x="46.48" y="2.82" width="1.41" height="1.41"/>
    <rect x="50.7" y="2.82" width="1.41" height="1.41"/>
    <rect x="46.48" y="4.23" width="2.82" height="1.41"/>
    <rect x="52.11" y="4.23" width="1.41" height="1.41"/>
    <rect x="59.15" y="4.23" width="1.41" height="1.41"/>
    <rect x="64.79" y="4.23" width="2.82" height="1.41"/>
    <rect x="47.89" y="5.63" width="7.04" height="1.41"/>
    <rect x="59.15" y="5.63" width="2.82" height="1.41"/>
    <rect x="63.38" y="5.63" width="5.63" height="1.41"/>
    <rect x="40.85" y="7.04" width="2.82" height="1.41"/>
    <rect x="50.7" y="7.04" width="4.23" height="1.41"/>
    <rect x="60.56" y="7.04" width="1.41" height="1.41"/>
    <rect x="63.38" y="7.04" width="2.82" height="1.41"/>
    <rect x="67.61" y="7.04" width="2.82" height="1.41"/>
    <rect x="39.44" y="8.45" width="5.63" height="1.41"/>
    <rect x="53.52" y="8.45" width="2.82" height="1.41"/>
    <rect x="64.79" y="8.45" width="2.82" height="1.41"/>
    <rect x="69.01" y="8.45" width="1.41" height="1.41"/>
    <rect x="39.44" y="9.86" width="4.23" height="1.41"/>
    <rect x="45.07" y="9.86" width="1.41" height="1.41"/>
    <rect x="54.93" y="9.86" width="1.41" height="1.41"/>
    <rect x="66.2" y="9.86" width="4.23" height="1.41"/>
    <rect x="42.25" y="11.27" width="5.63" height="1.41"/>
    <rect x="67.61" y="11.27" width="4.23" height="1.41"/>
    <rect x="46.48" y="12.68" width="2.82" height="1.41"/>
    <rect x="69.01" y="12.68" width="2.82" height="1.41"/>
    <rect x="47.89" y="14.08" width="1.41" height="1.41"/>
    <rect x="69.01" y="14.08" width="2.82" height="1.41"/>
    <rect x="50.7" y="15.49" width="2.82" height="1.41"/>
    <rect x="70.42" y="15.49" width="1.41" height="1.41"/>
    <rect x="52.11" y="16.9" width="4.23" height="1.41"/>
    <rect x="74.65" y="16.9" width="1.41" height="1.41"/>
    <rect x="52.11" y="18.31" width="1.41" height="1.41"/>
    <rect x="54.93" y="18.31" width="2.82" height="1.41"/>
    <rect x="74.65" y="18.31" width="2.82" height="1.41"/>
    <rect x="53.52" y="19.72" width="1.41" height="1.41"/>
    <rect x="56.34" y="19.72" width="2.82" height="1.41"/>
    <rect x="76.06" y="19.72" width="1.41" height="1.41"/>
    <rect x="53.52" y="21.13" width="1.41" height="1.41"/>
    <rect x="59.15" y="21.13" width="1.41" height="1.41"/>
    <rect x="54.93" y="22.54" width="1.41" height="1.41"/>
    <rect x="60.56" y="22.54" width="1.41" height="1.41"/>
    <rect x="46.48" y="23.94" width="9.86" height="1.41"/>
    <rect x="61.97" y="23.94" width="1.41" height="1.41"/>
    <rect x="42.25" y="25.35" width="7.04" height="1.41"/>
    <rect x="54.93" y="25.35" width="1.41" height="1.41"/>
    <rect x="61.97" y="25.35" width="2.82" height="1.41"/>
    <rect x="38.03" y="26.76" width="5.63" height="1.41"/>
    <rect x="63.38" y="26.76" width="5.63" height="1.41"/>
    <rect x="35.21" y="28.17" width="4.23" height="1.41"/>
    <rect x="63.38" y="28.17" width="7.04" height="1.41"/>
    <rect x="33.8" y="29.58" width="2.82" height="1.41"/>
    <rect x="69.01" y="29.58" width="4.23" height="1.41"/>
    <rect x="32.39" y="30.99" width="2.82" height="1.41"/>
    <rect x="71.83" y="30.99" width="2.82" height="1.41"/>
    <rect x="29.58" y="32.39" width="2.82" height="1.41"/>
    <rect x="73.24" y="32.39" width="2.82" height="1.41"/>
    <rect x="28.17" y="33.8" width="2.82" height="1.41"/>
    <rect x="43.66" y="33.8" width="4.23" height="1.41"/>
    <rect x="76.06" y="33.8" width="1.41" height="1.41"/>
    <rect x="80.28" y="33.8" width="1.41" height="1.41"/>
    <rect x="26.76" y="35.21" width="2.82" height="1.41"/>
    <rect x="46.48" y="35.21" width="2.82" height="1.41"/>
    <rect x="77.46" y="35.21" width="4.23" height="1.41"/>
    <rect x="26.76" y="36.62" width="1.41" height="1.41"/>
    <rect x="46.48" y="36.62" width="4.23" height="1.41"/>
    <rect x="78.87" y="36.62" width="2.82" height="1.41"/>
    <rect x="25.35" y="38.03" width="2.82" height="1.41"/>
    <rect x="45.07" y="38.03" width="2.82" height="1.41"/>
    <rect x="49.3" y="38.03" width="4.23" height="1.41"/>
    <rect x="77.46" y="38.03" width="4.23" height="1.41"/>
    <rect x="23.94" y="39.44" width="2.82" height="1.41"/>
    <rect x="43.66" y="39.44" width="2.82" height="1.41"/>
    <rect x="52.11" y="39.44" width="2.82" height="1.41"/>
    <rect x="77.46" y="39.44" width="4.23" height="1.41"/>
    <rect x="22.54" y="40.85" width="2.82" height="1.41"/>
    <rect x="43.66" y="40.85" width="1.41" height="1.41"/>
    <rect x="53.52" y="40.85" width="4.23" height="1.41"/>
    <rect x="76.06" y="40.85" width="2.82" height="1.41"/>
    <rect x="80.28" y="40.85" width="2.82" height="1.41"/>
    <rect x="22.54" y="42.25" width="1.41" height="1.41"/>
    <rect x="43.66" y="42.25" width="1.41" height="1.41"/>
    <rect x="54.93" y="42.25" width="4.23" height="1.41"/>
    <rect x="76.06" y="42.25" width="2.82" height="1.41"/>
    <rect x="80.28" y="42.25" width="4.23" height="1.41"/>
    <rect x="21.13" y="43.66" width="2.82" height="1.41"/>
    <rect x="43.66" y="43.66" width="1.41" height="1.41"/>
    <rect x="54.93" y="43.66" width="5.63" height="1.41"/>
    <rect x="74.65" y="43.66" width="4.23" height="1.41"/>
    <rect x="80.28" y="43.66" width="4.23" height="1.41"/>
    <rect x="21.13" y="45.07" width="1.41" height="1.41"/>
    <rect x="43.66" y="45.07" width="1.41" height="1.41"/>
    <rect x="54.93" y="45.07" width="8.45" height="1.41"/>
    <rect x="64.79" y="45.07" width="1.41" height="1.41"/>
    <rect x="73.24" y="45.07" width="5.63" height="1.41"/>
    <rect x="80.28" y="45.07" width="4.23" height="1.41"/>
    <rect x="21.13" y="46.48" width="1.41" height="1.41"/>
    <rect x="43.66" y="46.48" width="2.82" height="1.41"/>
    <rect x="56.34" y="46.48" width="9.86" height="1.41"/>
    <rect x="71.83" y="46.48" width="2.82" height="1.41"/>
    <rect x="76.06" y="46.48" width="1.41" height="1.41"/>
    <rect x="80.28" y="46.48" width="5.63" height="1.41"/>
    <rect x="19.72" y="47.89" width="2.82" height="1.41"/>
    <rect x="43.66" y="47.89" width="2.82" height="1.41"/>
    <rect x="61.97" y="47.89" width="2.82" height="1.41"/>
    <rect x="73.24" y="47.89" width="1.41" height="1.41"/>
    <rect x="80.28" y="47.89" width="2.82" height="1.41"/>
    <rect x="84.51" y="47.89" width="1.41" height="1.41"/>
    <rect x="19.72" y="49.3" width="1.41" height="1.41"/>
    <rect x="45.07" y="49.3" width="2.82" height="1.41"/>
    <rect x="60.56" y="49.3" width="2.82" height="1.41"/>
    <rect x="74.65" y="49.3" width="1.41" height="1.41"/>
    <rect x="78.87" y="49.3" width="2.82" height="1.41"/>
    <rect x="84.51" y="49.3" width="1.41" height="1.41"/>
    <rect x="19.72" y="50.7" width="1.41" height="1.41"/>
    <rect x="46.48" y="50.7" width="4.23" height="1.41"/>
    <rect x="57.75" y="50.7" width="2.82" height="1.41"/>
    <rect x="76.06" y="50.7" width="4.23" height="1.41"/>
    <rect x="84.51" y="50.7" width="2.82" height="1.41"/>
    <rect x="19.72" y="52.11" width="1.41" height="1.41"/>
    <rect x="49.3" y="52.11" width="8.45" height="1.41"/>
    <rect x="84.51" y="52.11" width="2.82" height="1.41"/>
    <rect x="18.31" y="53.52" width="2.82" height="1.41"/>
    <rect x="84.51" y="53.52" width="2.82" height="1.41"/>
    <rect x="18.31" y="54.93" width="2.82" height="1.41"/>
    <rect x="59.15" y="54.93" width="12.68" height="1.41"/>
    <rect x="84.51" y="54.93" width="2.82" height="1.41"/>
    <rect x="15.49" y="56.34" width="2.82" height="1.41"/>
    <rect x="53.52" y="56.34" width="5.63" height="1.41"/>
    <rect x="70.42" y="56.34" width="8.45" height="1.41"/>
    <rect x="85.92" y="56.34" width="1.41" height="1.41"/>
    <rect x="12.68" y="57.75" width="4.23" height="1.41"/>
    <rect x="49.3" y="57.75" width="4.23" height="1.41"/>
    <rect x="77.46" y="57.75" width="9.86" height="1.41"/>
    <rect x="9.86" y="59.15" width="2.82" height="1.41"/>
    <rect x="47.89" y="59.15" width="2.82" height="1.41"/>
    <rect x="77.46" y="59.15" width="2.82" height="1.41"/>
    <rect x="81.69" y="59.15" width="5.63" height="1.41"/>
    <rect x="5.63" y="60.56" width="4.23" height="1.41"/>
    <rect x="45.07" y="60.56" width="2.82" height="1.41"/>
    <rect x="60.56" y="60.56" width="1.41" height="1.41"/>
    <rect x="67.61" y="60.56" width="1.41" height="1.41"/>
    <rect x="73.24" y="60.56" width="1.41" height="1.41"/>
    <rect x="77.46" y="60.56" width="1.41" height="1.41"/>
    <rect x="8.45" y="61.97" width="4.23" height="1.41"/>
    <rect x="43.66" y="61.97" width="2.82" height="1.41"/>
    <rect x="52.11" y="61.97" width="1.41" height="1.41"/>
    <rect x="59.15" y="61.97" width="4.23" height="1.41"/>
    <rect x="66.2" y="61.97" width="12.68" height="1.41"/>
    <rect x="11.27" y="63.38" width="5.63" height="1.41"/>
    <rect x="42.25" y="63.38" width="4.23" height="1.41"/>
    <rect x="52.11" y="63.38" width="25.35" height="1.41"/>
    <rect x="16.9" y="64.79" width="4.23" height="1.41"/>
    <rect x="40.85" y="64.79" width="32.39" height="1.41"/>
    <rect x="19.72" y="66.2" width="1.41" height="1.41"/>
    <rect x="39.44" y="66.2" width="33.8" height="1.41"/>
    <rect x="19.72" y="67.61" width="1.41" height="1.41"/>
    <rect x="39.44" y="67.61" width="33.8" height="1.41"/>
    <rect x="19.72" y="69.01" width="2.82" height="1.41"/>
    <rect x="38.03" y="69.01" width="35.21" height="1.41"/>
    <rect x="21.13" y="70.42" width="1.41" height="1.41"/>
    <rect x="38.03" y="70.42" width="35.21" height="1.41"/>
    <rect x="21.13" y="71.83" width="1.41" height="1.41"/>
    <rect x="38.03" y="71.83" width="35.21" height="1.41"/>
    <rect x="21.13" y="73.24" width="2.82" height="1.41"/>
    <rect x="36.62" y="73.24" width="36.62" height="1.41"/>
    <rect x="22.54" y="74.65" width="1.41" height="1.41"/>
    <rect x="36.62" y="74.65" width="39.44" height="1.41"/>
    <rect x="22.54" y="76.06" width="2.82" height="1.41"/>
    <rect x="36.62" y="76.06" width="16.9" height="1.41"/>
    <rect x="56.34" y="76.06" width="2.82" height="1.41"/>
    <rect x="63.38" y="76.06" width="2.82" height="1.41"/>
    <rect x="70.42" y="76.06" width="1.41" height="1.41"/>
    <rect x="74.65" y="76.06" width="1.41" height="1.41"/>
    <rect x="23.94" y="77.46" width="2.82" height="1.41"/>
    <rect x="36.62" y="77.46" width="8.45" height="1.41"/>
    <rect x="49.3" y="77.46" width="2.82" height="1.41"/>
    <rect x="57.75" y="77.46" width="1.41" height="1.41"/>
    <rect x="74.65" y="77.46" width="1.41" height="1.41"/>
    <rect x="25.35" y="78.87" width="1.41" height="1.41"/>
    <rect x="38.03" y="78.87" width="5.63" height="1.41"/>
    <rect x="50.7" y="78.87" width="1.41" height="1.41"/>
    <rect x="67.61" y="78.87" width="9.86" height="1.41"/>
    <rect x="25.35" y="80.28" width="2.82" height="1.41"/>
    <rect x="38.03" y="80.28" width="4.23" height="1.41"/>
    <rect x="59.15" y="80.28" width="8.45" height="1.41"/>
    <rect x="73.24" y="80.28" width="5.63" height="1.41"/>
    <rect x="26.76" y="81.69" width="2.82" height="1.41"/>
    <rect x="38.03" y="81.69" width="4.23" height="1.41"/>
    <rect x="53.52" y="81.69" width="5.63" height="1.41"/>
    <rect x="77.46" y="81.69" width="2.82" height="1.41"/>
    <rect x="28.17" y="83.1" width="2.82" height="1.41"/>
    <rect x="39.44" y="83.1" width="14.08" height="1.41"/>
    <rect x="76.06" y="83.1" width="2.82" height="1.41"/>
    <rect x="29.58" y="84.51" width="2.82" height="1.41"/>
    <rect x="43.66" y="84.51" width="4.23" height="1.41"/>
    <rect x="74.65" y="84.51" width="2.82" height="1.41"/>
    <rect x="30.99" y="85.92" width="2.82" height="1.41"/>
    <rect x="73.24" y="85.92" width="2.82" height="1.41"/>
    <rect x="29.58" y="87.32" width="1.41" height="1.41"/>
    <rect x="33.8" y="87.32" width="2.82" height="1.41"/>
    <rect x="71.83" y="87.32" width="2.82" height="1.41"/>
    <rect x="28.17" y="88.73" width="2.82" height="1.41"/>
    <rect x="36.62" y="88.73" width="2.82" height="1.41"/>
    <rect x="69.01" y="88.73" width="2.82" height="1.41"/>
    <rect x="28.17" y="90.14" width="1.41" height="1.41"/>
    <rect x="39.44" y="90.14" width="2.82" height="1.41"/>
    <rect x="64.79" y="90.14" width="5.63" height="1.41"/>
    <rect x="26.76" y="91.55" width="1.41" height="1.41"/>
    <rect x="39.44" y="91.55" width="8.45" height="1.41"/>
    <rect x="60.56" y="91.55" width="5.63" height="1.41"/>
    <rect x="25.35" y="92.96" width="2.82" height="1.41"/>
    <rect x="36.62" y="92.96" width="4.23" height="1.41"/>
    <rect x="45.07" y="92.96" width="16.9" height="1.41"/>
    <rect x="23.94" y="94.37" width="2.82" height="1.41"/>
    <rect x="32.39" y="94.37" width="5.63" height="1.41"/>
    <rect x="22.54" y="95.77" width="2.82" height="1.41"/>
    <rect x="28.17" y="95.77" width="5.63" height="1.41"/>
    <rect x="19.72" y="97.18" width="8.45" height="1.41"/>
  </g>

</svg>